<svg xmlns="http://www.w3.org/2000/svg" xmlns:xlink="http://www.w3.org/1999/xlink" version="1.1" x="0px" y="0px" viewBox="0 0 20 25" enable-background="new 0 0 20 20" xml:space="preserve"><g><path d="M-125.2-15.209c-14.543,0-26.332,11.79-26.332,26.333s11.789,26.334,26.332,26.334c9.664,0,18.106-5.208,22.689-12.968   L-125.2,11.125V-15.209z"/><path d="M-120.702-15.995V7.77l20.473,12.063c2.088-3.538,3.29-7.659,3.29-12.063C-96.939-5.355-107.577-15.995-120.702-15.995z"/></g><g><path d="M-64.624-7.791c-9.413,0-17.043,7.631-17.043,17.044c0,9.413,7.63,17.045,17.043,17.045c6.255,0,11.719-3.371,14.686-8.394   l-14.686-8.651V-7.791z"/><path d="M-61.713-8.299V7.083l13.251,7.808c1.352-2.29,2.129-4.958,2.129-7.808C-46.333-1.413-53.218-8.299-61.713-8.299z"/></g><g><path d="M-21.489-2.026c-7.373,0-13.349,5.977-13.349,13.35c0,7.373,5.976,13.35,13.349,13.35c4.899,0,9.179-2.641,11.502-6.574   l-11.502-6.776V-2.026z"/><path d="M-19.208-2.424V9.623l10.378,6.115c1.059-1.793,1.667-3.883,1.667-6.115C-7.163,2.97-12.555-2.424-19.208-2.424z"/></g><g><path d="M9.68,1.381c-4.832,0-8.749,3.917-8.749,8.75c0,4.832,3.917,8.75,8.749,8.75c3.21,0,6.016-1.731,7.538-4.309L9.68,10.13   V1.381z"/><path d="M11.174,1.12v7.896l6.802,4.008c0.694-1.175,1.093-2.545,1.093-4.008C19.069,4.655,15.535,1.12,11.174,1.12z"/></g><text x="0" y="35" fill="#000000" font-size="5px" font-weight="bold" font-family="'Helvetica Neue', Helvetica, Arial-Unicode, Arial, Sans-serif">Created by Alex Auda Samora</text><text x="0" y="40" fill="#000000" font-size="5px" font-weight="bold" font-family="'Helvetica Neue', Helvetica, Arial-Unicode, Arial, Sans-serif">from the Noun Project</text></svg>