<svg xmlns="http://www.w3.org/2000/svg" xmlns:xlink="http://www.w3.org/1999/xlink" version="1.0" x="0px" y="0px" viewBox="0 0 32 40" enable-background="new 0 0 32 32" xml:space="preserve"><path d="M14.029,28H16V18h4v10h2.015C23.12,28,24,28.893,24,29.999V32H12v-2.001C12,28.893,12.927,28,14.029,28z M0.554,11.269  l3.979,3.989C5.251,15.976,6.045,16,6.045,16h23.958C31.105,16,32,15.097,32,13.99V5.986C32,4.88,31.105,4,30.003,4H20V1.984  c0-1.106-0.897-2.001-2-2.001c-1.106,0-2,0.895-2,2.001V4H6.045c0,0-0.77-0.055-1.489,0.661L0.554,8.667  C-0.162,9.386-0.162,10.55,0.554,11.269z"/><text x="0" y="47" fill="#000000" font-size="5px" font-weight="bold" font-family="'Helvetica Neue', Helvetica, Arial-Unicode, Arial, Sans-serif">Created by Zlatko Najdenovski</text><text x="0" y="52" fill="#000000" font-size="5px" font-weight="bold" font-family="'Helvetica Neue', Helvetica, Arial-Unicode, Arial, Sans-serif">from the Noun Project</text></svg>